
<svg xmlns="http://www.w3.org/2000/svg" width="128" height="128" viewBox="0 0 64 64" role="img" aria-label="Shop logo">
  <defs>
    <linearGradient id="g" x1="0" y1="0" x2="1" y2="1">
      <stop offset="0" stop-color="#7c5cff"/>
      <stop offset="1" stop-color="#22c55e"/>
    </linearGradient>
  </defs>
  <rect rx="14" ry="14" width="64" height="64" fill="url(#g)"/>
  <path d="M14 20h36l-3 20a8 8 0 0 1-8 7H25a8 8 0 0 1-8-7l-3-20z" fill="rgba(0,0,0,.2)"/>
  <circle cx="24" cy="49" r="3" fill="#fff"/>
  <circle cx="40" cy="49" r="3" fill="#fff"/>
  <path d="M18 18c0-4 3-7 7-7s7 3 7 7c0-4 3-7 7-7s7 3 7 7" fill="none" stroke="#fff" stroke-width="3" stroke-linecap="round"/>
</svg>
